<svg xmlns="http://www.w3.org/2000/svg" viewBox="0 0 780 435" font-family="-apple-system, BlinkMacSystemFont, 'Segoe UI', sans-serif"><defs><style>.k{rx:5;stroke-width:1}.k-mod{fill:#e1f5ee;stroke:#5dcaa5}.k-nav{fill:#faeeda;stroke:#ef9f27}.k-spc{fill:#eeedfe;stroke:#afa9ec}.k-acc{fill:#fbeaf0;stroke:#ed93b1}.k-def{fill:#f5f5f0;stroke:#d3d1c7}.t-func,.t-phys,.t-sub{font-size:11px;font-weight:600;fill:#2c2c2a;text-anchor:middle}.t-phys,.t-sub{font-size:8px;font-weight:400;fill:#888780}.t-sub{font-size:7.5px;fill:#5f5e5a}.t-mod-f{fill:#04342c}.t-nav-f{fill:#633806}.t-spc-f{fill:#26215c}.t-acc-f{fill:#4b1528}.t-title{font-size:16px;font-weight:600;fill:#888780;text-anchor:middle}.t-legend{font-size:10px;fill:#888780}.t-cascade-label,.t-cascade-val{font-size:10px;font-family:monospace}.t-cascade-label{text-anchor:end;fill:#888780}.t-cascade-val{fill:#b4b2a9;font-weight:600}.t-cascade-arrow{font-size:10px;fill:#888780}@media (prefers-color-scheme:dark){.k-mod{fill:#0a3d31;stroke:#1d9e75}.k-nav{fill:#3d2a08;stroke:#ba7517}.k-spc{fill:#2a2854;stroke:#7f77dd}.k-acc{fill:#3d1528;stroke:#d4537e}.k-def{fill:#333330;stroke:#5f5e5a}.t-func{fill:#e8e6dd}.t-phys{fill:#888780}.t-sub{fill:#b4b2a9}.t-mod-f{fill:#9fe1cb}.t-nav-f{fill:#fac775}.t-spc-f{fill:#cecbf6}.t-acc-f{fill:#f4c0d1}}</style></defs><text class="t-title" x="390" y="28">HyperJIS — Apple JIS Keyboard Layout</text><rect x="120" y="40" width="12" height="12" rx="2" class="k k-mod"/><text class="t-legend" x="136" y="50">Modifier remap</text><rect x="250" y="40" width="12" height="12" rx="2" class="k k-nav"/><text class="t-legend" x="266" y="50">Vim navigation / tiling</text><rect x="420" y="40" width="12" height="12" rx="2" class="k k-spc"/><text class="t-legend" x="436" y="50">Special function</text><rect x="560" y="40" width="12" height="12" rx="2" class="k k-acc"/><text class="t-legend" x="576" y="50">Accent layer (Fn+)</text><path class="k k-spc" d="M14 68H62V104H14z"/><text class="t-func t-spc-f" x="38" y="82">⇧⌘4</text><text class="t-phys" x="38" y="95">esc</text><path class="k k-def" d="M66 68H106V104H66z"/><text class="t-func" x="86" y="90">1</text><path class="k k-def" d="M110 68H150V104H110z"/><text class="t-func" x="130" y="90">2</text><path class="k k-def" d="M154 68H194V104H154z"/><text class="t-func" x="174" y="90">3</text><path class="k k-acc" d="M198 68H238V104H198z"/><text class="t-func t-acc-f" x="218" y="84">4</text><text class="t-sub" x="218" y="96">Fn→€</text><path class="k k-def" d="M242 68H282V104H242z"/><text class="t-func" x="262" y="90">5</text><path class="k k-def" d="M286 68H326V104H286z"/><text class="t-func" x="306" y="90">6</text><path class="k k-def" d="M330 68H370V104H330z"/><text class="t-func" x="350" y="90">7</text><path class="k k-def" d="M374 68H414V104H374z"/><text class="t-func" x="394" y="90">8</text><path class="k k-def" d="M418 68H458V104H418z"/><text class="t-func" x="438" y="90">9</text><path class="k k-def" d="M462 68H502V104H462z"/><text class="t-func" x="482" y="90">0</text><path class="k k-def" d="M506 68H546V104H506z"/><text class="t-func" x="526" y="90">-</text><path class="k k-def" d="M550 68H590V104H550z"/><text class="t-func" x="570" y="90">^</text><path class="k k-spc" d="M594 68H634V104H594z"/><text class="t-func t-spc-f" x="614" y="82">` ~</text><text class="t-phys" x="614" y="95">¥</text><path class="k k-def" d="M638 68H694V104H638z"/><text class="t-func" x="666" y="90">⌫</text><path class="k k-def" d="M14 108H70V144H14z"/><text class="t-func" x="42" y="130">Tab</text><path class="k k-def" d="M74 108H114V144H74z"/><text class="t-func" x="94" y="130">Q</text><path class="k k-def" d="M118 108H158V144H118z"/><text class="t-func" x="138" y="130">W</text><path class="k k-acc" d="M162 108H202V144H162z"/><text class="t-func t-acc-f" x="182" y="124">E</text><text class="t-sub" x="182" y="136">Fn→è/é</text><path class="k k-def" d="M206 108H246V144H206z"/><text class="t-func" x="226" y="130">R</text><path class="k k-def" d="M250 108H290V144H250z"/><text class="t-func" x="270" y="130">T</text><path class="k k-def" d="M294 108H334V144H294z"/><text class="t-func" x="314" y="130">Y</text><path class="k k-acc" d="M338 108H378V144H338z"/><text class="t-func t-acc-f" x="358" y="124">U</text><text class="t-sub" x="358" y="136">Fn→ù/ú</text><path class="k k-acc" d="M382 108H422V144H382z"/><text class="t-func t-acc-f" x="402" y="124">I</text><text class="t-sub" x="402" y="136">Fn→ì/í</text><path class="k k-acc" d="M426 108H466V144H426z"/><text class="t-func t-acc-f" x="446" y="124">O</text><text class="t-sub" x="446" y="136">Fn→ò/ó</text><path class="k k-def" d="M470 108H510V144H470z"/><text class="t-func" x="490" y="130">P</text><path class="k k-acc" d="M514 108H554V144H514z"/><text class="t-func t-acc-f" x="534" y="124">[</text><text class="t-sub" x="534" y="136">Fn→\u201C</text><path class="k k-acc" d="M558 108H598V144H558z"/><text class="t-func t-acc-f" x="578" y="124">]</text><text class="t-sub" x="578" y="136">Fn→\u201D</text><rect x="602" y="108" width="40" height="76" rx="5" class="k k-def"/><text class="t-func" x="622" y="150">⏎</text><path class="k k-mod" d="M14 148H78V184H14z"/><text class="t-func t-mod-f" x="46" y="162" font-size="8px">Esc/Ctrl</text><text class="t-phys" x="46" y="175">⇪ Caps</text><path class="k k-acc" d="M82 148H122V184H82z"/><text class="t-func t-acc-f" x="102" y="164">A</text><text class="t-sub" x="102" y="176">Fn→à/á</text><path class="k k-def" d="M126 148H166V184H126z"/><text class="t-func" x="146" y="170">S</text><path class="k k-def" d="M170 148H210V184H170z"/><text class="t-func" x="190" y="170">D</text><path class="k k-def" d="M214 148H254V184H214z"/><text class="t-func" x="234" y="170">F</text><path class="k k-def" d="M258 148H298V184H258z"/><text class="t-func" x="278" y="170">G</text><path class="k k-nav" d="M302 148H342V184H302z"/><text class="t-func t-nav-f" x="322" y="164">H</text><text class="t-sub" x="322" y="176">Ctrl→←</text><path class="k k-nav" d="M346 148H386V184H346z"/><text class="t-func t-nav-f" x="366" y="164">J</text><text class="t-sub" x="366" y="176">Ctrl→↓</text><path class="k k-nav" d="M390 148H430V184H390z"/><text class="t-func t-nav-f" x="410" y="164">K</text><text class="t-sub" x="410" y="176">Ctrl→↑</text><path class="k k-nav" d="M434 148H474V184H434z"/><text class="t-func t-nav-f" x="454" y="164">L</text><text class="t-sub" x="454" y="176">Ctrl→→</text><path class="k k-def" d="M478 148H518V184H478z"/><text class="t-func" x="498" y="170">;</text><path class="k k-def" d="M522 148H562V184H522z"/><text class="t-func" x="542" y="170">:</text><path class="k k-def" d="M566 148H598V184H566z"/><text class="t-func" x="582" y="170">\</text><path class="k k-def" d="M14 188H94V224H14z"/><text class="t-func" x="54" y="210">⇧</text><path class="k k-def" d="M98 188H138V224H98z"/><text class="t-func" x="118" y="210">Z</text><path class="k k-def" d="M142 188H182V224H142z"/><text class="t-func" x="162" y="210">X</text><path class="k k-def" d="M186 188H226V224H186z"/><text class="t-func" x="206" y="210">C</text><path class="k k-def" d="M230 188H270V224H230z"/><text class="t-func" x="250" y="210">V</text><path class="k k-def" d="M274 188H314V224H274z"/><text class="t-func" x="294" y="210">B</text><path class="k k-def" d="M318 188H358V224H318z"/><text class="t-func" x="338" y="210">N</text><path class="k k-def" d="M362 188H402V224H362z"/><text class="t-func" x="382" y="210">M</text><path class="k k-acc" d="M406 188H446V224H406z"/><text class="t-func t-acc-f" x="426" y="204">,</text><text class="t-sub" x="426" y="216">Fn→«</text><path class="k k-acc" d="M450 188H490V224H450z"/><text class="t-func t-acc-f" x="470" y="204">.</text><text class="t-sub" x="470" y="216">Fn→»</text><path class="k k-def" d="M494 188H534V224H494z"/><text class="t-func" x="514" y="210">/</text><path class="k k-spc" d="M538 188H578V224H538z"/><text class="t-func t-spc-f" x="558" y="204">😀</text><text class="t-phys" x="558" y="216">ろ</text><path class="k k-def" d="M582 188H654V224H582z"/><text class="t-func" x="618" y="210">⇧</text><path class="k k-mod" d="M14 228H54V264H14z"/><text class="t-func t-mod-f" x="34" y="240" font-size="9px">Hyper</text><text class="t-phys" x="34" y="254">Fn</text><path class="k k-mod" d="M58 228H106V264H58z"/><text class="t-func t-mod-f" x="82" y="240" font-size="8px">Esc/Ctrl</text><text class="t-phys" x="82" y="254">⌃</text><path class="k k-mod" d="M110 228H158V264H110z"/><text class="t-func t-mod-f" x="134" y="240" font-size="9px">Hyper</text><text class="t-phys" x="134" y="254">⌥</text><path class="k k-mod" d="M162 228H210V264H162z"/><text class="t-func t-mod-f" x="186" y="240" font-size="10px">⌥</text><text class="t-phys" x="186" y="254">⌘</text><path class="k k-mod" d="M214 228H266V264H214z"/><text class="t-func t-mod-f" x="240" y="240" font-size="10px">⌘</text><text class="t-phys" x="240" y="254">英数</text><path class="k k-mod" d="M270 228H440V264H270z"/><text class="t-func t-mod-f" x="355" y="240" font-size="9px">Space / Ctrl (hold)</text><text class="t-phys" x="355" y="254">Space</text><path class="k k-mod" d="M444 228H496V264H444z"/><text class="t-func t-mod-f" x="470" y="240" font-size="10px">⌘</text><text class="t-phys" x="470" y="254">かな</text><path class="k k-mod" d="M500 228H548V264H500z"/><text class="t-func t-mod-f" x="524" y="240" font-size="10px">⌥</text><text class="t-phys" x="524" y="254">⌘</text><path class="k k-def" d="M552 228H592V264H552z"/><text class="t-func" x="572" y="248" font-size="9px">🌐</text><path class="k k-nav" d="M600 228H638V264H600z"/><text class="t-func t-nav-f" x="619" y="240" font-size="9px">←</text><text class="t-sub" x="619" y="254">Tile</text><path class="k k-nav" d="M642 228H680V246H642z"/><text class="t-func t-nav-f" x="661" y="241" font-size="9px">↑</text><path class="k k-nav" d="M642 246H680V264H642z"/><text class="t-func t-nav-f" x="661" y="259" font-size="9px">↓</text><path class="k k-nav" d="M684 228H722V264H684z"/><text class="t-func t-nav-f" x="703" y="240" font-size="9px">→</text><text class="t-sub" x="703" y="254">Tile</text><path stroke="#D3D1C7" stroke-width=".5" stroke-dasharray="4 3" d="M40 284L740 284"/><text class="t-title" x="390" y="310" font-size="13px">Modifier cascade</text><text class="t-cascade-label" x="200" y="335">Caps Lock (tap)</text><text class="t-cascade-arrow" x="210" y="335">→</text><text class="t-cascade-val" x="225" y="335">Escape</text><text class="t-cascade-label" x="200" y="352">Caps Lock (hold)</text><text class="t-cascade-arrow" x="210" y="352">→</text><text class="t-cascade-val" x="225" y="352">Control</text><text class="t-cascade-label" x="200" y="369">Space (hold)</text><text class="t-cascade-arrow" x="210" y="369">→</text><text class="t-cascade-val" x="225" y="369">Control</text><text class="t-cascade-label" x="200" y="386">Left Control (tap)</text><text class="t-cascade-arrow" x="210" y="386">→</text><text class="t-cascade-val" x="225" y="386">Escape</text><text class="t-cascade-label" x="200" y="403">Left Option</text><text class="t-cascade-arrow" x="210" y="403">→</text><text class="t-cascade-val" x="225" y="403">Hyper (⌃⌥⇧⌘)</text><text class="t-cascade-label" x="520" y="335">Left Command</text><text class="t-cascade-arrow" x="530" y="335">→</text><text class="t-cascade-val" x="545" y="335">Option</text><text class="t-cascade-label" x="520" y="352">Eisuu (英数)</text><text class="t-cascade-arrow" x="530" y="352">→</text><text class="t-cascade-val" x="545" y="352">Left Command</text><text class="t-cascade-label" x="520" y="369">Kana (かな)</text><text class="t-cascade-arrow" x="530" y="369">→</text><text class="t-cascade-val" x="545" y="369">Right Command</text><text class="t-cascade-label" x="520" y="386">Fn (hold)</text><text class="t-cascade-arrow" x="530" y="386">→</text><text class="t-cascade-val" x="545" y="386">Hyper (⌃⌥⇧⌘)</text><text class="t-cascade-label" x="520" y="403">Ctrl + HJKL</text><text class="t-cascade-arrow" x="530" y="403">→</text><text class="t-cascade-val" x="545" y="403">Arrow keys (Vim)</text></svg>